<?xml version="1.0" standalone="no"?>
<!DOCTYPE svg PUBLIC "-//W3C//DTD SVG 20010904//EN"
 "http://www.w3.org/TR/2001/REC-SVG-20010904/DTD/svg10.dtd">
<svg version="1.0" xmlns="http://www.w3.org/2000/svg"
 width="469.000000pt" height="469.000000pt" viewBox="0 0 469.000000 469.000000"
 preserveAspectRatio="xMidYMid meet">

<g transform="translate(0.000000,469.000000) scale(0.100000,-0.100000)"
fill="#000000" stroke="none">
<path d="M2215 4614 c-395 -46 -740 -188 -1034 -424 -474 -382 -741 -993 -692
-1587 67 -804 562 -1430 1326 -1676 61 -19 119 -37 130 -39 12 -2 -10 -14 -60
-32 -142 -50 -319 -159 -356 -220 -28 -45 -25 -90 7 -115 15 -12 31 -21 37
-21 6 0 38 18 71 39 88 57 147 81 218 87 113 11 215 -24 677 -226 471 -205
629 -262 785 -282 174 -22 375 22 509 112 134 89 287 269 287 336 0 27 -28 64
-47 64 -9 0 -66 -17 -127 -37 -109 -37 -113 -37 -266 -37 -143 0 -164 3 -273
32 -191 52 -466 169 -621 265 l-39 25 50 10 c316 68 680 270 920 510 292 292
469 638 539 1057 26 155 24 425 -5 589 -137 778 -705 1370 -1471 1534 -163 35
-426 52 -565 36z m240 -335 c523 -85 909 -629 990 -1399 47 -442 -12 -883
-160 -1181 -60 -123 -96 -172 -195 -269 -179 -176 -403 -259 -665 -247 -452
20 -800 335 -994 899 -79 230 -118 456 -127 738 -21 617 157 1090 500 1323
195 132 404 176 651 136z"/>
</g>
</svg>
