<?xml version="1.0" standalone="no"?>
<!DOCTYPE svg PUBLIC "-//W3C//DTD SVG 20010904//EN"
 "http://www.w3.org/TR/2001/REC-SVG-20010904/DTD/svg10.dtd">
<svg version="1.0" xmlns="http://www.w3.org/2000/svg"
 width="1024.000000pt" height="1024.000000pt" viewBox="0 0 1024.000000 1024.000000"
 preserveAspectRatio="xMidYMid meet">

<g transform="translate(0.000000,1024.000000) scale(0.100000,-0.100000)"
fill="#000000" stroke="none">
<path d="M0 5120 l0 -5120 5120 0 5120 0 0 5120 0 5120 -5120 0 -5120 0 0
-5120z m5330 2650 c407 -32 766 -142 1096 -337 666 -394 1094 -1038 1216
-1828 27 -180 30 -530 6 -700 -73 -500 -263 -923 -590 -1314 l-45 -54 243
-270 244 -270 0 -93 0 -94 -232 1 -233 0 -170 192 c-216 243 -585 664 -933
1066 l-273 313 3 97 c2 53 6 95 11 94 4 -2 103 -3 220 -3 l213 0 274 -306
c151 -168 285 -316 297 -330 12 -13 27 -24 32 -24 14 0 109 119 175 221 333
513 412 1162 216 1761 -215 655 -762 1172 -1436 1357 -178 49 -275 63 -485 68
-283 8 -485 -20 -724 -99 -767 -253 -1314 -932 -1405 -1743 -15 -132 -12 -387
5 -517 104 -790 666 -1454 1445 -1706 458 -148 931 -130 1393 52 63 25 119 46
124 46 10 -1 277 -338 281 -355 2 -7 -39 -33 -91 -58 -226 -110 -446 -179
-712 -224 -137 -23 -589 -26 -725 -5 -852 131 -1566 661 -1951 1447 -191 391
-273 823 -240 1260 50 659 308 1221 763 1661 202 195 386 324 633 444 412 201
879 287 1355 250z"/>
</g>
</svg>
